<!--?xml version="1.0" standalone="no"?-->
              <svg id="sw-js-blob-svg" viewBox="0 0 100 100" xmlns="http://www.w3.org/2000/svg" version="1.1">
                    <defs> 
                        <linearGradient id="sw-gradient" x1="0" x2="1" y1="1" y2="0">
                            <stop id="stop1" stop-color="rgba(208, 71, 146, 1)" offset="0%"></stop>
                            <stop id="stop2" stop-color="rgba(35, 38, 45, 1)" offset="100%"></stop>
                        </linearGradient>
                    </defs>
                <path fill="url(#sw-gradient)" d="M19.1,-34.2C24.6,-29.8,28.8,-24.5,33.7,-18.6C38.6,-12.7,44.2,-6.4,44.9,0.4C45.6,7.2,41.5,14.4,36.4,20C31.4,25.6,25.4,29.6,19.2,34C12.9,38.5,6.5,43.3,0.4,42.6C-5.7,41.9,-11.3,35.7,-16.3,30.5C-21.3,25.4,-25.6,21.3,-28.3,16.4C-31.1,11.5,-32.3,5.7,-31.5,0.4C-30.8,-4.9,-28.1,-9.8,-26.4,-16.6C-24.8,-23.4,-24.2,-32.1,-19.9,-37.3C-15.7,-42.4,-7.9,-44,-0.5,-43C6.8,-42.1,13.5,-38.6,19.1,-34.2Z" width="100%" height="100%" transform="translate(50 50)" stroke-width="0" style="transition: all 0.3s ease 0s;" stroke="url(#sw-gradient)"></path>
              </svg>